<?xml version="1.0" encoding="UTF-8" standalone="no"?>
<svg
   xmlns:dc="http://purl.org/dc/elements/1.1/"
   xmlns:cc="http://creativecommons.org/ns#"
   xmlns:rdf="http://www.w3.org/1999/02/22-rdf-syntax-ns#"
   xmlns:svg="http://www.w3.org/2000/svg"
   xmlns="http://www.w3.org/2000/svg"
   xmlns:sodipodi="http://sodipodi.sourceforge.net/DTD/sodipodi-0.dtd"
   xmlns:inkscape="http://www.inkscape.org/namespaces/inkscape"
   sodipodi:docname="Institution_of_Civil_Engineers.svg"
   inkscape:version="1.0 (4035a4fb49, 2020-05-01)"
   version="1.1"
   id="svg2"
   height="97.361084"
   width="152.88745">
  <defs
     id="defs4" />
  <sodipodi:namedview
     inkscape:document-rotation="0"
     fit-margin-bottom="0"
     fit-margin-right="0"
     fit-margin-left="0"
     fit-margin-top="0"
     inkscape:window-maximized="1"
     inkscape:window-y="-11"
     inkscape:window-x="-11"
     inkscape:window-height="1000"
     inkscape:window-width="1920"
     showgrid="false"
     inkscape:current-layer="layer1"
     inkscape:document-units="px"
     inkscape:cy="6.3445514"
     inkscape:cx="62.951138"
     inkscape:zoom="3.959798"
     inkscape:pageshadow="2"
     inkscape:pageopacity="0.0"
     borderopacity="1.0"
     bordercolor="#666666"
     pagecolor="#ffffff"
     id="base" />
  <metadata
     id="metadata7">
    <rdf:RDF>
      <cc:Work
         rdf:about="">
        <dc:format>image/svg+xml</dc:format>
        <dc:type
           rdf:resource="http://purl.org/dc/dcmitype/StillImage" />
        <dc:title></dc:title>
      </cc:Work>
    </rdf:RDF>
  </metadata>
  <g
     transform="translate(126.31643,-726.36336)"
     id="layer1"
     inkscape:groupmode="layer"
     inkscape:label="Layer 1">
    <rect
       y="675.04395"
       x="-177.63275"
       height="200"
       width="255.52005"
       id="rect3059"
       style="fill:none;stroke:none" />
    <path
       inkscape:connector-curvature="0"
       id="path3007"
       d="m -10.349304,823.6992 c -0.577214,-0.10844 -0.83822,-0.17016 -1.08757,-0.25721 l -0.27647,-0.0965 0.01039,-0.37285 c 0.0128,-0.45964 0.06042,-0.89016 0.10122,-0.91537 0.01681,-0.0104 0.122992,0.0222 0.235955,0.0724 0.419013,0.18635 0.640188,0.25436 1.033562,0.31784 0.7819486,0.12618 1.3421235,0.003 1.7336932,-0.38009 0.2092482,-0.20491 0.374653,-0.46554 0.3355793,-0.52877 -0.011845,-0.0192 0.014739,-0.12721 0.059068,-0.24009 0.093781,-0.23876 0.1506403,-0.96988 0.078878,-1.01424 -0.023711,-0.0147 -0.057493,0.013 -0.077033,0.0631 -0.081184,0.20811 -0.4801002,0.50026 -0.8969249,0.65687 -0.307804,0.11564 -0.3494389,0.1214 -0.8641139,0.11938 -0.5902717,-0.002 -0.7508707,-0.0384 -1.1973317,-0.26933 -0.338647,-0.17515 -0.561841,-0.39156 -0.765706,-0.74245 -0.09932,-0.17093 -0.180573,-0.32647 -0.180573,-0.34564 0,-0.0192 -0.04191,-0.1282 -0.09313,-0.2423 -0.07122,-0.15864 -0.106275,-0.34378 -0.148974,-0.78684 -0.07428,-0.7708 -0.05306,-1.23111 0.07295,-1.58221 0.05366,-0.14951 0.102002,-0.32754 0.107426,-0.39563 0.0054,-0.0681 0.07367,-0.2199 0.151663,-0.33738 0.07799,-0.11747 0.141806,-0.22386 0.141806,-0.23643 0,-0.0126 0.07644,-0.12218 0.169863,-0.24359 0.252253,-0.32785 0.540748,-0.55264 0.892283,-0.69525 0.281731,-0.11429 0.356995,-0.12736 0.8531582,-0.14815 0.4892871,-0.0205 0.5730273,-0.0142 0.8304031,0.0625 0.3247514,0.0968 0.6297283,0.28781 0.8388078,0.52535 0.078459,0.0891 0.1600368,0.16891 0.1812837,0.17727 0.0232,0.009 0.046333,-0.12363 0.057933,-0.33245 l 0.019299,-0.34763 h 0.7338462 0.7338463 l 0.0085,2.93409 c 0.00922,3.18423 0.00189,3.32627 -0.2009816,3.86081 -0.1396794,0.36817 -0.3753278,0.75261 -0.6128779,0.99985 -0.2470387,0.25712 -0.8640986,0.57338 -1.2996191,0.66607 -0.3421436,0.0728 -1.4003887,0.10732 -1.6801207,0.0548 z m 1.4229133,-3.85448 c 0.1826129,-0.0808 0.4441399,-0.29879 0.5692799,-0.47454 0.1517803,-0.21317 0.2379131,-0.66319 0.243143,-1.27033 0.00424,-0.49613 -0.00586,-0.59268 -0.088709,-0.84567 -0.1208865,-0.36913 -0.2821861,-0.60531 -0.5323075,-0.77946 -0.1683648,-0.11723 -0.2561386,-0.14776 -0.5407326,-0.1881 -0.3208302,-0.0455 -0.3526392,-0.0434 -0.5714833,0.0377 -0.6541298,0.24231 -0.9855018,1.04235 -0.8936638,2.15757 0.05474,0.66469 0.504394,1.29438 1.0288444,1.44074 0.1628895,0.0455 0.6061143,0.002 0.7856292,-0.0779 z m -106.1892493,1.41992 c -0.43477,-0.0472 -1.12758,-0.18982 -1.18573,-0.24399 -0.036,-0.0335 -0.034,-0.17145 0.009,-0.61866 0.0304,-0.31652 0.0644,-0.58462 0.0756,-0.59577 0.0112,-0.0112 0.20699,0.0416 0.43519,0.11731 1.07852,0.35765 1.81,0.25174 2.03842,-0.29511 0.0774,-0.18542 0.0494,-0.43527 -0.0651,-0.58094 -0.16063,-0.20421 -0.73042,-0.42083 -1.38004,-0.52465 -0.18218,-0.0291 -0.37744,-0.0942 -0.54073,-0.18015 -0.34021,-0.17915 -0.43974,-0.27354 -0.41066,-0.38943 0.0141,-0.056 -0.006,-0.13762 -0.0516,-0.21346 -0.1472,-0.2431 -0.20979,-0.55865 -0.18567,-0.93615 0.0303,-0.47399 0.13186,-0.72598 0.4189,-1.03926 0.26309,-0.28713 0.49751,-0.43027 0.95832,-0.58516 0.31615,-0.10626 0.35548,-0.11029 1.06215,-0.10898 0.74307,10e-4 1.40425,0.0825 1.51372,0.18582 0.0348,0.0328 0.0372,0.17496 0.01,0.58079 -0.0199,0.29556 -0.0459,0.54708 -0.0578,0.55895 -0.0119,0.0119 -0.17271,-0.017 -0.35744,-0.0642 -0.92189,-0.23541 -1.44931,-0.18781 -1.78202,0.16083 -0.11616,0.12173 -0.13295,0.16436 -0.13295,0.33762 0,0.28411 0.13946,0.40293 0.67251,0.57295 0.38703,0.12345 1.16929,0.45716 1.47713,0.63015 0.15193,0.0854 0.37298,0.38674 0.39512,0.53869 0.007,0.0484 0.0417,0.21844 0.077,0.37778 0.11173,0.50461 0,1.02477 -0.3217,1.49578 -0.19718,0.28882 -0.27833,0.35946 -0.60506,0.52668 -0.47231,0.24173 -1.36771,0.36849 -2.06636,0.29255 z m 6.2377,-0.0135 c -0.32576,-0.0634 -0.6517,-0.18874 -0.81656,-0.31413 -0.18547,-0.14107 -0.39736,-0.45397 -0.53009,-0.7828 l -0.11984,-0.29691 -0.0199,-1.75748 -0.0199,-1.75748 -0.56005,-0.0193 -0.56003,-0.0193 v -0.56007 -0.56008 l 0.56003,-0.0193 0.56005,-0.0193 0.0193,-0.57939 0.0193,-0.57939 0.69522,-0.23865 c 0.38237,-0.13126 0.72529,-0.23989 0.76205,-0.24141 0.061,-0.002 0.0677,0.0684 0.0772,0.81804 l 0.0104,0.8208 0.67591,0.0193 0.67591,0.0193 v 0.56008 0.56007 l -0.67591,0.0193 -0.67591,0.0193 v 1.50641 c 0,1.35401 0.007,1.52668 0.0699,1.70678 0.14276,0.40927 0.47994,0.57323 0.97743,0.4753 0.12499,-0.0246 0.25333,-0.0476 0.28519,-0.0512 0.0461,-0.005 0.0639,0.0685 0.0873,0.36048 0.0162,0.20182 0.0248,0.47089 0.0193,0.59794 l -0.0101,0.231 -0.21243,0.0473 c -0.34454,0.0767 -0.98907,0.0941 -1.29389,0.0348 z m 7.74402,0.0142 c -0.11684,-0.02 -0.33847,-0.0817 -0.49251,-0.13707 -0.24957,-0.0897 -0.30722,-0.13106 -0.52935,-0.37927 -0.24287,-0.27138 -0.36378,-0.48755 -0.45334,-0.81053 -0.028,-0.10096 -0.0521,-0.78164 -0.0665,-1.87724 l -0.0226,-1.71885 -0.56005,-0.0193 -0.56004,-0.0193 v -0.56008 -0.56007 l 0.56004,-0.0193 0.56005,-0.0193 0.0193,-0.57939 0.0193,-0.57939 0.69523,-0.23865 c 0.38237,-0.13126 0.72529,-0.2399 0.76204,-0.24142 0.061,-0.003 0.0677,0.0685 0.0772,0.81805 l 0.0104,0.8208 0.67592,0.0193 0.675911,0.0193 v 0.56007 0.56008 l -0.675911,0.0193 -0.67592,0.0193 v 1.50641 c 0,1.354 0.007,1.52668 0.0699,1.70678 0.14276,0.40927 0.47994,0.57323 0.97743,0.4753 0.334654,-0.0659 0.333416,-0.066 0.363431,0.0425 0.01525,0.0551 0.03428,0.32361 0.04232,0.59673 l 0.01464,0.49659 -0.231743,0.0478 c -0.323618,0.0668 -1.001638,0.0942 -1.255268,0.0508 z m 4.036155,-0.0163 c -0.148702,-0.0274 -0.374647,-0.0919 -0.502108,-0.14345 -0.202935,-0.082 -0.266834,-0.13658 -0.514093,-0.43918 -0.566805,-0.69365 -0.591702,-0.84775 -0.577388,-3.57379 l 0.01003,-1.909 h 0.753161 0.753155 l 0.0228,1.91198 c 0.02461,2.06276 0.03016,2.12027 0.245955,2.54615 0.125401,0.24748 0.237847,0.33023 0.525682,0.38687 0.701567,0.13803 1.281046,-0.23962 1.448173,-0.94378 0.0353,-0.14871 0.08226,-0.33991 0.104364,-0.42488 0.02282,-0.0877 0.05015,-0.87229 0.06325,-1.81542 l 0.02305,-1.66092 h 0.753161 0.753161 v 2.9742 2.97419 h -0.714537 -0.714537 l -0.01037,-0.32832 c -0.0057,-0.18058 -0.01941,-0.35319 -0.03044,-0.38359 -0.01423,-0.0392 -0.08415,0.007 -0.240679,0.15881 -0.42251,0.41002 -0.819795,0.60802 -1.374852,0.68523 -0.361234,0.0502 -0.429509,0.0489 -0.776938,-0.0151 z m 7.454345,0.003 c -0.724834,-0.13933 -1.225588,-0.60383 -1.415808,-1.31332 -0.0259,-0.0966 -0.05184,-0.82886 -0.06649,-1.87724 l -0.02402,-1.71886 -0.560042,-0.0193 -0.560037,-0.0193 v -0.56007 -0.56008 l 0.560037,-0.0193 0.560042,-0.0193 0.0193,-0.57939 0.0193,-0.57938 0.695228,-0.23866 c 0.382373,-0.13126 0.725293,-0.23989 0.762046,-0.24141 0.06103,-0.002 0.06773,0.0684 0.07725,0.81804 l 0.01041,0.8208 0.675913,0.0193 0.675914,0.0193 v 0.56008 0.56007 l -0.675914,0.0193 -0.675913,0.0193 v 1.50641 c 0,1.35401 0.0071,1.52668 0.0699,1.70678 0.144685,0.4148 0.492661,0.57822 1.013175,0.47584 0.126571,-0.0249 0.2562,-0.0482 0.288065,-0.0517 0.0461,-0.005 0.06393,0.0685 0.08732,0.36048 0.01617,0.20182 0.02485,0.47059 0.0193,0.59726 l -0.01008,0.23032 -0.231742,0.0473 c -0.37908,0.0774 -1.010148,0.095 -1.313198,0.0368 z m 7.937133,0.0287 c -0.207858,-0.0207 -0.83206,-0.21477 -1.052177,-0.32707 -0.268418,-0.13695 -0.758799,-0.57288 -0.978247,-0.86963 -0.115355,-0.156 -0.209739,-0.30188 -0.209739,-0.32417 0,-0.0223 -0.03433,-0.10783 -0.07628,-0.19007 -0.04196,-0.0823 -0.09507,-0.22495 -0.118044,-0.31713 -0.02296,-0.0922 -0.05929,-0.23712 -0.08072,-0.32209 -0.116071,-0.46022 -0.102666,-1.27992 0.02726,-1.66662 0.09836,-0.29277 0.357685,-0.82582 0.462131,-0.94996 0.05205,-0.0619 0.09464,-0.1336 0.09464,-0.15941 0,-0.0817 0.315933,-0.35865 0.675913,-0.59253 0.267647,-0.17389 0.433456,-0.24982 0.720759,-0.33009 0.659508,-0.18426 1.590634,-0.1801 2.205603,0.01 0.595404,0.18391 1.361525,0.85216 1.637448,1.42827 0.166816,0.3483 0.226364,0.54584 0.279701,0.92789 0.06074,0.43499 0.03344,1.28704 -0.04949,1.54504 -0.167235,0.52028 -0.431666,0.98435 -0.70582,1.2387 -0.699737,0.64917 -1.244278,0.87698 -2.157026,0.90238 -0.276159,0.008 -0.580317,0.006 -0.675913,-0.003 z m 1.187137,-1.36006 c 0.45413,-0.22926 0.606651,-0.43824 0.722599,-0.9901 0.134849,-0.64179 0.11351,-1.4031 -0.04966,-1.77182 -0.03881,-0.0877 -0.158222,-0.26478 -0.265346,-0.39348 -0.26734,-0.32119 -0.553493,-0.45365 -1.023486,-0.47375 -0.3504,-0.015 -0.535375,0.0292 -0.841614,0.20098 -0.223487,0.12539 -0.264559,0.17657 -0.441605,0.55034 -0.282528,0.59647 -0.332537,1.14075 -0.173231,1.88537 0.08807,0.41166 0.369167,0.80149 0.70607,0.9792 0.255853,0.13496 0.394811,0.15975 0.802327,0.14316 0.277625,-0.0113 0.372137,-0.0331 0.563942,-0.1299 z m 16.154832,1.36005 c -0.208824,-0.0208 -0.832427,-0.21495 -1.054518,-0.32827 -0.153646,-0.0784 -0.712175,-0.52452 -0.844308,-0.67441 -0.09238,-0.10478 -0.341341,-0.48082 -0.341341,-0.51557 0,-0.0162 -0.0497,-0.14044 -0.110437,-0.27615 -0.09739,-0.21759 -0.202408,-0.67003 -0.250035,-1.07721 -0.04861,-0.41558 0.105151,-1.28547 0.269497,-1.52466 0.0288,-0.0419 0.05253,-0.11144 0.05276,-0.15451 5.11e-4,-0.0431 0.07843,-0.18226 0.173804,-0.30931 0.09537,-0.12704 0.173401,-0.24944 0.173401,-0.27199 0,-0.0762 0.326228,-0.35941 0.675908,-0.58688 0.261118,-0.16985 0.443726,-0.25462 0.733851,-0.34065 0.363022,-0.10763 0.424539,-0.11432 1.023522,-0.11119 0.635464,0.003 1.021247,0.0568 1.322793,0.18355 0.299543,0.12585 0.79906,0.49316 1.066318,0.78408 0.553682,0.6027 0.759387,1.26205 0.721372,2.31224 -0.03561,0.98365 -0.319,1.60786 -0.987056,2.17409 -0.335917,0.28473 -0.660254,0.46007 -1.118167,0.6045 -0.26873,0.0848 -0.417223,0.10559 -0.830403,0.11645 -0.276736,0.007 -0.58137,0.005 -0.676961,-0.004 z m 1.187132,-1.36006 c 0.45413,-0.22925 0.606652,-0.43824 0.722605,-0.9901 0.134843,-0.64179 0.113509,-1.40309 -0.04966,-1.77182 -0.03881,-0.0877 -0.158222,-0.26478 -0.265341,-0.39348 -0.267339,-0.32119 -0.553493,-0.45364 -1.023491,-0.47375 -0.3504,-0.015 -0.535375,0.0292 -0.841609,0.20098 -0.223486,0.12539 -0.264559,0.17657 -0.441609,0.55034 -0.279671,0.59044 -0.332267,1.14143 -0.178339,1.86841 0.08574,0.40498 0.384172,0.84326 0.677881,0.99557 0.25254,0.13095 0.430485,0.16171 0.835623,0.14441 0.276762,-0.0118 0.372746,-0.034 0.563942,-0.13056 z m 14.94404,1.34122 c -0.402929,-0.0355 -1.150819,-0.1929 -1.376984,-0.28973 -0.07435,-0.0318 -0.349132,-0.16528 -0.610628,-0.29653 -0.430352,-0.21601 -0.505458,-0.27005 -0.791785,-0.56963 -0.625674,-0.65464 -0.964065,-1.41019 -1.036783,-2.3149 -0.04405,-0.54801 -0.01389,-1.3656 0.06414,-1.73833 0.07335,-0.35039 0.251793,-0.81831 0.465903,-1.22171 0.142533,-0.26853 0.253593,-0.4121 0.514394,-0.66496 0.501168,-0.48591 0.79862,-0.66354 1.645817,-0.98283 0.548008,-0.20654 1.418399,-0.29634 2.162915,-0.22316 0.456481,0.0449 1.245316,0.21675 1.320493,0.28773 0.03546,0.0335 0.03375,0.1873 -0.0075,0.67531 -0.02939,0.34758 -0.06357,0.64211 -0.07596,0.6545 -0.0124,0.0124 -0.1133,-0.0219 -0.224233,-0.0762 -0.298995,-0.14634 -0.577332,-0.2163 -1.051414,-0.26427 -0.679196,-0.0687 -1.091736,-0.0115 -1.608313,0.22288 -0.842775,0.38248 -1.333846,1.08506 -1.524056,2.18048 -0.06764,0.38954 -0.06028,0.54471 0.05697,1.20087 0.06488,0.36305 0.102804,0.46846 0.291863,0.81115 0.361448,0.65515 0.74562,0.96741 1.508965,1.22651 0.24667,0.0837 0.332987,0.0917 0.984898,0.0909 0.67507,-8.5e-4 0.739071,-0.007 1.158707,-0.11999 0.244294,-0.0655 0.45665,-0.10769 0.471906,-0.0937 0.01525,0.014 0.03264,0.31084 0.03862,0.65966 l 0.01088,0.63423 -0.404315,0.0867 c -0.404852,0.0868 -1.178493,0.17385 -1.456262,0.16388 -0.08132,-0.003 -0.31902,-0.0204 -0.528232,-0.0389 z m 55.7477968,0.0175 c -0.2315585,-0.0231 -0.9189234,-0.21805 -1.0846093,-0.30768 -0.072933,-0.0395 -0.2932389,-0.20073 -0.4895785,-0.3584 -0.2750799,-0.22092 -0.3911454,-0.34491 -0.5059789,-0.5405 -0.1535696,-0.26157 -0.3250428,-0.61498 -0.3700774,-0.76272 -0.137655,-0.45164 -0.1537384,-1.67274 -0.027637,-2.09835 0.120048,-0.40517 0.2292835,-0.66393 0.3530175,-0.83623 0.063731,-0.0888 0.1158662,-0.18199 0.1158662,-0.2072 0,-0.0568 0.4977582,-0.61748 0.5481659,-0.61748 0.020127,0 0.1613865,-0.0753 0.3139081,-0.16729 0.3736919,-0.22544 0.6344674,-0.27743 1.3780936,-0.27475 0.7237698,0.003 0.9573937,0.0486 1.3990644,0.27563 0.6859692,0.35256 1.0433986,0.91487 1.3010756,2.04687 0.0782,0.34355 0.111342,1.0077 0.05731,1.14852 -0.02096,0.0546 -0.235823,0.0611 -2.0289513,0.0611 -1.7614119,0 -2.0082563,0.007 -2.0280973,0.0589 -0.03731,0.0972 0.1101301,0.60556 0.2257355,0.77826 0.300386,0.44874 0.8198205,0.66238 1.622254,0.66723 0.3978732,0.002 0.7669538,-0.10071 1.3147056,-0.36733 0.5269395,-0.25648 0.4968635,-0.28362 0.4842615,0.43696 l -0.01063,0.60836 -0.2124326,0.11389 c -0.1168324,0.0626 -0.4123054,0.1648 -0.6565988,0.22702 -0.3694639,0.0941 -0.5351141,0.11474 -0.9848981,0.12278 -0.2974004,0.005 -0.6186805,0.002 -0.7139643,-0.008 z m 1.4952787,-3.92614 c -0.04073,-0.39465 -0.1038215,-0.53072 -0.3639018,-0.78481 -0.1625111,-0.15877 -0.3034073,-0.25821 -0.4241609,-0.29935 -0.2136039,-0.0728 -0.6149843,-0.0803 -0.8384908,-0.0156 -0.2379694,0.0688 -0.601595,0.32714 -0.661159,0.4697 -0.027964,0.0669 -0.089267,0.1705 -0.1362286,0.2302 -0.06052,0.0769 -0.091204,0.181 -0.1053552,0.3573 l -0.019984,0.24874 h 1.2852687 1.2852688 l -0.021283,-0.20613 z m 4.9156565,3.92418 c -0.197853,-0.0173 -0.831083,-0.19962 -1.062151,-0.30587 -0.08497,-0.0391 -0.315125,-0.20017 -0.511464,-0.35799 -0.27486,-0.22094 -0.391238,-0.34532 -0.505984,-0.54076 -0.293459,-0.49985 -0.396437,-0.7728 -0.45278,-1.20015 -0.06889,-0.52256 -0.02017,-1.27264 0.113131,-1.74187 0.05072,-0.17854 0.102825,-0.3701 0.115784,-0.4257 0.01297,-0.0556 0.08465,-0.18988 0.159306,-0.29842 0.07465,-0.10853 0.135733,-0.21148 0.135733,-0.22876 0,-0.0173 0.112052,-0.1542 0.249012,-0.30427 0.255494,-0.27996 0.654078,-0.55408 0.957849,-0.65874 0.389627,-0.13425 1.399964,-0.15799 1.929792,-0.0454 0.112354,0.0239 0.342608,0.11277 0.511674,0.19753 0.680182,0.34099 1.159699,1.07098 1.295135,1.97166 0.07935,0.52766 0.127717,1.09662 0.101951,1.19928 l -0.02583,0.10289 h -2.024718 c -1.113596,0 -2.032632,0.013 -2.042305,0.029 -0.03441,0.0567 0.04945,0.44427 0.134455,0.62145 0.0475,0.099 0.191698,0.28444 0.320426,0.41203 0.249447,0.24725 0.419703,0.32486 0.888096,0.40483 0.612822,0.10463 1.095443,0.0165 1.807725,-0.33023 0.526796,-0.25641 0.496858,-0.28328 0.484262,0.4346 l -0.01063,0.606 -0.204504,0.12275 c -0.31739,0.19052 -1.181652,0.36691 -1.754311,0.35804 -0.239713,-0.004 -0.514056,-0.0136 -0.609652,-0.0219 z m 1.518458,-3.95565 c -0.01455,-0.44249 -0.390021,-0.93373 -0.810404,-1.06025 -0.219805,-0.0662 -0.586498,-0.0699 -0.800133,-0.008 -0.237969,0.0688 -0.601595,0.32714 -0.661158,0.4697 -0.02797,0.0669 -0.08927,0.1705 -0.136234,0.23021 -0.06057,0.077 -0.0912,0.18101 -0.105396,0.35782 l -0.02,0.24928 1.270249,-0.0102 1.270249,-0.0102 -0.0072,-0.21828 z m 8.098806,3.94075 c -0.423946,-0.043 -1.126106,-0.18606 -1.185747,-0.2416 -0.036,-0.0335 -0.034,-0.17144 0.0089,-0.61865 0.03044,-0.31653 0.06503,-0.5852 0.07688,-0.59706 0.01193,-0.0118 0.181637,0.0341 0.37725,0.1021 0.19564,0.068 0.538202,0.15083 0.761254,0.18404 0.743524,0.1107 1.131679,-0.0187 1.321945,-0.44088 0.09082,-0.20146 0.0691,-0.44715 -0.05326,-0.60271 -0.160625,-0.20422 -0.730416,-0.42083 -1.380031,-0.52465 -0.501327,-0.0801 -1.168733,-0.50484 -0.922359,-0.58697 0.03343,-0.0111 0.0108,-0.0903 -0.07576,-0.26394 -0.33062,-0.66397 -0.242442,-1.39368 0.230833,-1.9102 0.246354,-0.26888 0.412423,-0.37022 0.929225,-0.56708 0.315385,-0.12013 0.318621,-0.12049 1.088801,-0.1217 0.78315,-10e-4 1.440316,0.0763 1.55154,0.18311 0.03455,0.0332 0.03319,0.16946 -0.0057,0.57709 -0.02805,0.29352 -0.06235,0.54501 -0.07619,0.55887 -0.01378,0.0139 -0.141622,-0.007 -0.283904,-0.0467 -0.382327,-0.10622 -0.963661,-0.18115 -1.199934,-0.15468 -0.741555,0.0831 -1.042565,0.65568 -0.541417,1.02987 0.05289,0.0395 0.269078,0.12956 0.480422,0.20017 0.388155,0.12967 1.043205,0.41094 1.376632,0.5911 0.211293,0.11417 0.413338,0.39324 0.497195,0.68675 0.03503,0.12256 0.05381,0.35797 0.05138,0.64421 -0.0048,0.56862 -0.07943,0.78832 -0.399151,1.17529 -0.359643,0.43529 -0.820756,0.64254 -1.662191,0.74708 -0.365937,0.0455 -0.493526,0.0451 -0.966622,-0.003 z m -149.80258,-0.15843 c -0.0103,-0.027 -0.0142,-1.84808 -0.009,-4.04686 l 0.01,-3.99778 h 0.79179 0.79178 v 4.0364 4.03641 l -0.78303,0.0105 c -0.60542,0.008 -0.78728,-6.4e-4 -0.80174,-0.0386 z m 3.20573,4e-5 c -0.0103,-0.027 -0.0143,-1.37013 -0.009,-2.98469 l 0.01,-2.93557 h 0.71453 0.71454 l 0.0104,0.32832 c 0.0148,0.46778 0.0176,0.47051 0.25178,0.24378 0.5837,-0.56516 1.22011,-0.77179 2.05929,-0.66861 0.46469,0.0571 0.59376,0.10052 0.81303,0.27337 0.10293,0.0811 0.24196,0.17568 0.30896,0.21007 0.15991,0.0821 0.40613,0.45595 0.44473,0.67529 0.13392,0.76081 0.14868,1.07759 0.13871,2.97717 l -0.01,1.909 h -0.75315 -0.75316 l -0.0246,-1.9313 c -0.0145,-1.13629 -0.0416,-2.00566 -0.0659,-2.11196 -0.12835,-0.56175 -0.37051,-0.78753 -0.89151,-0.83121 -0.33956,-0.0285 -0.49841,0.0264 -0.82037,0.28317 -0.28216,0.22507 -0.3946,0.41295 -0.51699,0.8639 -0.0585,0.21542 -0.0714,0.49785 -0.091,1.98923 l -0.0229,1.73817 -0.7444,0.0105 c -0.57445,0.008 -0.74867,-6.4e-4 -0.76314,-0.0386 z m 16.72399,0 c -0.0103,-0.027 -0.0143,-1.37013 -0.009,-2.98469 l 0.01,-2.93557 h 0.75316 0.75316 v 2.9742 2.97419 l -0.74439,0.0105 c -0.57446,0.008 -0.74868,-6.4e-4 -0.76315,-0.0386 z m 19.23452,0 c -0.01031,-0.027 -0.01425,-1.37013 -0.0088,-2.98469 l 0.01,-2.93557 h 0.753161 0.75316 v 2.9742 2.97419 l -0.744398,0.0105 c -0.574454,0.008 -0.748672,-6.4e-4 -0.76314,-0.0386 z m 10.235234,0 c -0.01031,-0.027 -0.01425,-1.37013 -0.0088,-2.98469 l 0.01,-2.93557 h 0.714532 0.714537 l 0.01037,0.32832 c 0.01478,0.46778 0.01762,0.47051 0.251777,0.24378 0.604095,-0.58491 1.281486,-0.78731 2.183232,-0.65234 0.444426,0.0665 0.584581,0.12089 0.810726,0.31447 0.08527,0.073 0.172204,0.13272 0.19318,0.13272 0.06041,0 0.250643,0.23587 0.34311,0.42541 0.0465,0.0953 0.116024,0.34711 0.154495,0.55955 0.06194,0.34202 0.06995,0.62734 0.06995,2.49137 v 2.10511 h -0.753156 -0.75316 l -0.02036,-2.04717 c -0.02202,-2.21159 -0.01653,-2.15499 -0.240781,-2.48479 -0.1363,-0.20045 -0.362634,-0.31002 -0.706751,-0.34216 -0.29149,-0.0272 -0.467974,0.0262 -0.749838,0.22698 -0.366314,0.26094 -0.45441,0.41449 -0.605654,1.05575 -0.05154,0.2185 -0.06797,0.58418 -0.08674,1.93048 l -0.02315,1.66091 -0.744398,0.0105 c -0.574448,0.008 -0.748672,-6.4e-4 -0.763145,-0.0386 z m 17.921617,0 c -0.01014,-0.027 -0.0228,-1.1094 -0.02808,-2.4053 l -0.0096,-2.35618 -0.560042,-0.0193 -0.560042,-0.0193 v -0.56008 -0.56007 l 0.560042,-0.0193 0.560042,-0.0193 0.0236,-0.57939 c 0.04034,-0.99023 0.14949,-1.33411 0.553105,-1.74255 0.205705,-0.20818 0.272191,-0.24948 0.543376,-0.33753 0.49104,-0.15943 0.796242,-0.19183 1.320543,-0.14019 0.378958,0.0373 0.5918,0.0828 0.591202,0.12617 -0.0019,0.1346 -0.120892,1.20441 -0.135656,1.21917 -0.01159,0.0116 -0.06982,-0.008 -0.129378,-0.0429 -0.284998,-0.16836 -0.732532,-0.1577 -0.927159,0.0221 -0.19246,0.17777 -0.247888,0.38739 -0.252146,0.95367 l -0.0039,0.52145 0.656604,0.0193 0.656599,0.0193 v 0.56008 0.56007 l -0.656599,0.0193 -0.656604,0.0193 -0.0193,2.39481 -0.0193,2.3948 -0.744393,0.0105 c -0.574571,0.008 -0.748606,-6.3e-4 -0.762854,-0.0386 z m 14.213169,0 c -0.01031,-0.027 -0.01425,-1.37013 -0.0088,-2.98469 l 0.01,-2.93557 h 0.753161 0.75316 v 2.9742 2.97419 l -0.744398,0.0105 c -0.574453,0.008 -0.748677,-6.4e-4 -0.763145,-0.0386 z m 4.703397,0 c -0.0219,-0.027 -0.136019,-0.3271 -0.253567,-0.66701 -0.117553,-0.33991 -0.285821,-0.80052 -0.373937,-1.02359 -0.08812,-0.22306 -0.209473,-0.54462 -0.269676,-0.71457 -0.442116,-1.24809 -0.680371,-1.86773 -0.750027,-1.95061 -0.08357,-0.0994 -0.216145,-0.45297 -0.216145,-0.57637 0,-0.0648 -0.06982,-0.30377 -0.15517,-0.53099 -0.08534,-0.22723 -0.140594,-0.42772 -0.122772,-0.44554 0.01781,-0.0178 0.384933,-0.0277 0.815807,-0.0219 l 0.783405,0.0105 0.113499,0.30901 c 0.06243,0.16995 0.200445,0.56973 0.306705,0.88839 0.467043,1.40057 1.056952,3.03273 1.091905,3.02108 0.02096,-0.007 0.226517,-0.58293 0.456798,-1.27987 0.23027,-0.69694 0.45076,-1.31299 0.489962,-1.369 0.09508,-0.13581 0.243603,-0.54225 0.215045,-0.58846 -0.02468,-0.0399 0.239601,-0.87336 0.30193,-0.95218 0.02813,-0.0356 0.230117,-0.0483 0.767302,-0.0483 0.557383,0 0.729189,0.0113 0.729419,0.0483 5.11e-4,0.0663 -0.579147,1.65559 -0.897963,2.4624 -0.06296,0.15933 -0.198461,0.53304 -0.301117,0.83046 -0.102646,0.29742 -0.251486,0.70588 -0.330743,0.9077 -0.07926,0.20182 -0.250883,0.67113 -0.381381,1.0429 l -0.237269,0.67596 -0.871082,0.0104 c -0.667161,0.008 -0.880412,-10e-4 -0.910928,-0.0386 z m 4.913852,0 c -0.01031,-0.027 -0.01425,-1.37011 -0.0088,-2.98467 l 0.01,-2.93557 h 0.772475 0.77247 v 2.97419 2.9742 l -0.763712,0.0105 c -0.589929,0.008 -0.767976,-6.4e-4 -0.78246,-0.0386 z m 3.205798,0 c -0.01029,-0.027 -0.01423,-1.98716 -0.0088,-4.35589 l 0.0099,-4.30679 h 0.772475 0.772465 v 4.34542 4.34541 l -0.763712,0.0105 c -0.589939,0.008 -0.767966,-6.4e-4 -0.782414,-0.0386 z m 6.527169,-4.1e-4 c -0.0102,-0.0267 -0.01402,-1.84758 -0.0086,-4.04636 l 0.0099,-3.99778 h 2.375349 2.375343 v 0.61802 0.61801 l -1.56425,0.0193 -1.564254,0.0193 v 0.98496 0.98496 l 1.429069,0.0193 1.429073,0.0193 v 0.61802 0.61801 l -1.429073,0.0193 -1.429069,0.0193 v 1.12015 1.12015 l 1.564254,0.0193 1.56425,0.0193 v 0.61801 0.61802 l -2.366785,0.01 c -1.872928,0.008 -2.370655,0 -2.385302,-0.0386 z m 6.29581,4.1e-4 c -0.01031,-0.027 -0.01425,-1.37013 -0.0088,-2.98469 l 0.01,-2.93557 h 0.714537 0.714532 l 0.01038,0.32832 c 0.01478,0.46778 0.01761,0.47051 0.251772,0.24378 0.587306,-0.56866 1.216114,-0.77099 2.072463,-0.66686 0.516592,0.0628 0.654574,0.12085 1.099777,0.46256 0.204289,0.1568 0.417091,0.48224 0.454079,0.69442 0.13402,0.76895 0.148375,1.0777 0.138401,2.97717 l -0.01004,1.909 h -0.753155 -0.753161 l -0.02462,-1.9313 c -0.01449,-1.13629 -0.04161,-2.00566 -0.0659,-2.11196 -0.126638,-0.55428 -0.366647,-0.78316 -0.870545,-0.83022 -0.303433,-0.0283 -0.472182,0.0239 -0.77699,0.24062 -0.339914,0.24166 -0.442667,0.40272 -0.582797,0.9135 -0.05667,0.20659 -0.0701,0.50367 -0.08955,1.98119 l -0.02289,1.73817 -0.744393,0.0105 c -0.574454,0.008 -0.748678,-6.4e-4 -0.76314,-0.0386 z m 14.1748369,0 c -0.010312,-0.027 -0.014253,-1.37013 -0.00878,-2.98469 l 0.00999,-2.93557 h 0.7531607 0.7531556 v 2.9742 2.97419 l -0.7443931,0.0105 c -0.5744485,0.008 -0.748672,-6.4e-4 -0.7631399,-0.0386 z m 3.1671275,0 c -0.010312,-0.027 -0.014253,-1.37013 -0.00878,-2.98469 l 0.00999,-2.93557 h 0.714537 0.7145369 l 0.010373,0.32832 c 0.0147849,0.46778 0.0176171,0.47051 0.2517727,0.24378 0.58369672,-0.56516 1.2201171,-0.77179 2.0592981,-0.66861 0.4646864,0.0571 0.5937527,0.10052 0.8130211,0.27337 0.102937,0.0811 0.2419723,0.17568 0.3089645,0.21007 0.1599141,0.0821 0.4061246,0.45595 0.444733,0.67529 0.1339229,0.76081 0.1486823,1.07759 0.138703,2.97717 l -0.01001,1.909 H 2.956499 2.2033383 l -0.024621,-1.9313 c -0.014488,-1.13629 -0.041615,-2.00566 -0.065903,-2.11196 -0.1283454,-0.56175 -0.3705069,-0.78753 -0.8915059,-0.83121 -0.32712354,-0.0274 -0.49042714,0.0243 -0.77566013,0.24585 -0.33120318,0.25722 -0.42649215,0.41106 -0.56316043,0.90926 -0.0566754,0.20659 -0.0701056,0.50367 -0.0895529,1.98119 l -0.022888,1.73817 -0.74439302,0.0105 c -0.57445362,0.008 -0.74867722,-6.4e-4 -0.76314512,-0.0386 z m 19.9297406,-2e-5 c -0.01031,-0.027 -0.01425,-1.37011 -0.0088,-2.98467 l 0.01,-2.93557 h 0.675908 0.675913 l 0.01063,0.60836 c 0.0059,0.3346 0.02324,0.60829 0.03862,0.60821 0.01538,0 0.06132,-0.0826 0.102058,-0.18347 0.123146,-0.3048 0.275269,-0.49151 0.619498,-0.76032 0.402546,-0.31435 0.566259,-0.37945 0.967246,-0.38465 0.478387,-0.006 0.44417,-0.0668 0.44417,0.78661 0,0.63993 -0.0078,0.73511 -0.06019,0.73511 -0.03311,0 -0.180547,-0.0187 -0.32765,-0.0415 -0.32106,-0.0498 -0.602525,-0.003 -0.877135,0.1469 -0.265458,0.1446 -0.336913,0.22051 -0.454773,0.48315 -0.213415,0.47558 -0.220629,0.54332 -0.245878,2.30839 l -0.02348,1.6416 -0.763713,0.0105 c -0.589929,0.008 -0.767981,-6.4e-4 -0.78246,-0.0386 z M -106.33061,814.0343 c -0.0106,-0.0277 -0.0146,-0.3627 -0.009,-0.74439 l 0.0106,-0.69397 h 0.75316 0.75316 v 0.7339 0.73389 l -0.74439,0.0105 c -0.58427,0.008 -0.74856,-4.1e-4 -0.76374,-0.0399 z m 19.234527,0 c -0.01063,-0.0277 -0.01457,-0.3627 -0.0088,-0.74439 l 0.01059,-0.69397 h 0.753161 0.753155 v 0.7339 0.73389 l -0.744393,0.0105 c -0.584274,0.008 -0.748554,-4.1e-4 -0.763738,-0.0399 z m 42.370015,0 c -0.01065,-0.0277 -0.01457,-0.3627 -0.0088,-0.74439 l 0.01059,-0.69397 h 0.753161 0.75316 v 0.7339 0.73389 l -0.744398,0.0105 c -0.584269,0.008 -0.748554,-4.1e-4 -0.763738,-0.0399 z m 9.617254,-2e-5 c -0.01063,-0.0277 -0.01457,-0.36268 -0.0088,-0.74437 l 0.01059,-0.69397 h 0.77247 0.77247 v 0.7339 0.73389 l -0.763708,0.0105 c -0.600015,0.008 -0.767863,-4.1e-4 -0.783057,-0.0399 z m 30.2036087,2e-5 c -0.010628,-0.0277 -0.01457,-0.3627 -0.00877,-0.74439 l 0.010588,-0.69397 h 0.7531607 0.7531556 v 0.7339 0.73389 l -0.7443931,0.0105 c -0.5842693,0.008 -0.7485544,-4.1e-4 -0.7637381,-0.0399 z M -126.29954,808.31591 c -0.0106,-0.0276 -0.0144,-0.28402 -0.008,-0.56975 l 0.0108,-0.51949 h 76.339411 76.339417 v 0.56007 0.56008 l -76.330971,0.01 c -62.622947,0.008 -76.334427,6.4e-4 -76.350247,-0.0406 z m 38.239683,-11.46118 c -1.721561,-0.1595 -2.416231,-0.26958 -3.997535,-0.63348 -1.116608,-0.25695 -1.542538,-0.38272 -2.471906,-0.72992 -2.021436,-0.75519 -3.186999,-1.37992 -4.787474,-2.56606 -0.916878,-0.67952 -1.432508,-1.16255 -2.319118,-2.17255 -0.50637,-0.57682 -0.73399,-0.86326 -0.73399,-0.92364 0,-0.0219 -0.089,-0.15154 -0.19777,-0.28803 -0.19773,-0.2481 -0.24901,-0.32627 -0.52268,-0.79687 -0.0803,-0.13809 -0.21176,-0.34521 -0.29213,-0.46026 -0.0804,-0.11506 -0.14612,-0.24157 -0.14612,-0.28114 0,-0.0834 -0.18561,-0.44438 -0.34372,-0.66845 -0.06,-0.085 -0.15437,-0.26912 -0.20977,-0.4092 -0.0554,-0.14009 -0.14453,-0.33128 -0.19803,-0.42489 -0.0535,-0.0936 -0.0975,-0.19898 -0.0977,-0.23418 0,-0.0352 -0.0526,-0.18021 -0.11634,-0.32226 -0.0637,-0.14205 -0.11587,-0.27794 -0.11587,-0.302 0,-0.024 -0.0414,-0.15713 -0.0919,-0.29574 -0.17962,-0.49256 -0.50603,-1.58077 -0.56218,-1.87432 -0.0244,-0.12746 -0.10404,-0.49248 -0.17701,-0.81114 -0.073,-0.31866 -0.17732,-0.8488 -0.23187,-1.17809 -0.0546,-0.32929 -0.11664,-0.68819 -0.13797,-0.79755 -0.0213,-0.10937 -0.0399,-0.2745 -0.0412,-0.36695 -10e-4,-0.0924 -0.0268,-0.36938 -0.0565,-0.6154 -0.0297,-0.24602 -0.0639,-0.61104 -0.0759,-0.81115 -0.012,-0.2001 -0.0293,-0.4855 -0.0383,-0.63422 -0.0331,-0.54478 -0.0477,-13.03023 -0.0157,-13.44181 0.0182,-0.23368 0.0524,-0.81597 0.0759,-1.29396 0.0236,-0.47799 0.0755,-1.07766 0.11539,-1.33259 0.0399,-0.25493 0.0919,-0.61995 0.11568,-0.81115 0.0574,-0.4618 0.18529,-1.11533 0.41207,-2.10511 0.18932,-0.82629 0.24064,-1.01295 0.3823,-1.39053 0.0678,-0.18058 0.14336,-0.41246 0.16802,-0.5153 0.0247,-0.10284 0.13138,-0.37048 0.23716,-0.59475 0.10578,-0.22427 0.19232,-0.4317 0.19232,-0.46096 0,-0.0293 0.0608,-0.17401 0.13519,-0.32166 0.0744,-0.14765 0.13518,-0.29763 0.13518,-0.3333 0,-0.0357 0.0585,-0.1708 0.12996,-0.30032 0.0715,-0.1295 0.14075,-0.28094 0.15394,-0.33654 0.0132,-0.0556 0.0851,-0.18988 0.15971,-0.29842 0.0747,-0.10854 0.13574,-0.21191 0.13574,-0.22971 0,-0.0178 0.0739,-0.14476 0.16415,-0.28213 0.0903,-0.13736 0.19823,-0.31612 0.23987,-0.39724 0.0416,-0.0811 0.13754,-0.21964 0.21311,-0.30785 0.0756,-0.0882 0.1608,-0.20639 0.18941,-0.26264 0.0286,-0.0562 0.12824,-0.18942 0.2214,-0.29593 0.0932,-0.1065 0.16997,-0.20822 0.17066,-0.22604 6.7e-4,-0.0178 0.0876,-0.13668 0.19314,-0.26415 0.10552,-0.12746 0.23324,-0.29259 0.28381,-0.36695 0.23821,-0.35024 2.012952,-1.98507 2.432798,-2.24099 0.275698,-0.16806 1.004775,-0.64675 1.11034,-0.72903 0.35451,-0.2763 2.056184,-1.10992 3.027438,-1.48308 0.636215,-0.24444 2.540032,-0.81952 3.24438,-0.98 0.976524,-0.22251 2.352588,-0.46693 3.22506,-0.57285 0.456727,-0.0554 1.030286,-0.12665 1.274579,-0.15823 0.244294,-0.0316 1.200225,-0.11041 2.124297,-0.17517 l 1.68012,-0.11775 7.531592,-0.0212 c 9.830638,-0.0276 11.350072,0.007 13.827223,0.31916 1.032611,0.12992 1.692906,0.23872 2.796237,0.46076 0.794427,0.15988 1.463582,0.30569 1.487007,0.32404 0.02343,0.0183 0.172945,0.0641 0.332271,0.10155 0.735881,0.17323 2.960559,0.94417 3.128504,1.08416 0.03187,0.0266 0.164214,0.0912 0.294108,0.14369 0.1299,0.0525 0.381918,0.17316 0.560047,0.26822 0.935278,0.49909 1.224473,0.66185 1.347389,0.75828 0.07435,0.0583 0.308985,0.22171 0.521418,0.36306 0.673669,0.44827 1.098965,0.80135 1.736116,1.44133 0.340953,0.34246 0.677386,0.69052 0.747624,0.77348 0.07024,0.083 0.259114,0.29856 0.419719,0.47914 0.281,0.31593 1.162853,1.60087 1.202351,1.75192 0.01057,0.0404 0.07307,0.1632 0.138923,0.27296 0.243941,0.4066 0.718387,1.41439 0.718387,1.52597 0,0.0402 0.05213,0.18324 0.11584,0.31793 0.06371,0.13468 0.115856,0.27465 0.115872,0.31104 1.5e-5,0.0364 0.03696,0.15806 0.0821,0.27039 0.04513,0.11231 0.09561,0.25636 0.11218,0.32009 0.01657,0.0637 0.119051,0.44613 0.227739,0.84977 0.201054,0.7467 0.251277,0.99514 0.312329,1.54504 0.01888,0.16995 0.07027,0.54366 0.11423,0.83045 0.118663,0.77422 0.132522,1.10846 0.134526,3.24457 l 0.0019,1.95061 -4.806549,0.01 c -2.643598,0.005 -4.819611,-0.003 -4.835582,-0.0193 -0.01598,-0.016 -0.03168,-0.73307 -0.0349,-1.59347 -0.0043,-1.15051 -0.02124,-1.67674 -0.06397,-1.98923 -0.03197,-0.23369 -0.06329,-0.5137 -0.0696,-0.62225 -0.02395,-0.41154 -0.360078,-1.64584 -0.583109,-2.14122 -0.07216,-0.16027 -0.131198,-0.30386 -0.131198,-0.31909 0,-0.0521 -0.51607,-0.8571 -0.62504,-0.97499 -0.05984,-0.0648 -0.108806,-0.14498 -0.108806,-0.17828 0,-0.0333 -0.195532,-0.24991 -0.434519,-0.48133 -0.84302,-0.81634 -1.675734,-1.29408 -3.041604,-1.74498 -0.900053,-0.29713 -1.642473,-0.46822 -2.722957,-0.62753 -1.652401,-0.24364 -3.434554,-0.27871 -13.074067,-0.25719 -5.172403,0.0115 -7.949234,0.0317 -8.361995,0.0607 -1.852442,0.13031 -2.333866,0.17625 -2.896766,0.27646 -0.740559,0.13184 -1.661921,0.33422 -1.759628,0.38652 -0.03873,0.0207 -0.223516,0.0793 -0.410654,0.13016 -0.528984,0.14378 -0.997336,0.36025 -1.876787,0.86744 -0.567649,0.32737 -0.611897,0.35614 -0.880284,0.57241 -0.35583,0.28673 -1.348959,1.33401 -1.348959,1.42252 0,0.0144 -0.06149,0.0979 -0.136637,0.18575 -0.16244,0.18978 -0.964311,1.7998 -1.027709,2.06347 -0.02433,0.10118 -0.128611,0.42245 -0.231727,0.71391 -0.103121,0.29146 -0.18749,0.56599 -0.18749,0.61007 0,0.0441 -0.02447,0.18801 -0.05438,0.31984 -0.145355,0.64068 -0.178626,0.82878 -0.156704,0.88592 0.0131,0.0341 -0.005,0.21557 -0.04018,0.40319 -0.0352,0.18761 -0.08029,0.54101 -0.100202,0.78532 -0.0199,0.24431 -0.05176,0.60932 -0.07077,0.81114 -0.03451,0.36624 -0.02197,12.22948 0.01351,12.78517 0.01018,0.15933 0.0284,0.47872 0.04051,0.70974 0.0121,0.23103 0.03045,0.4337 0.04076,0.45038 0.01031,0.0167 0.02698,0.12316 0.03703,0.2366 0.02965,0.33436 0.09539,0.67958 0.219463,1.15259 0.06409,0.24431 0.130538,0.53321 0.147675,0.64201 0.01713,0.1088 0.06772,0.28048 0.112405,0.38151 0.04469,0.10104 0.08126,0.20895 0.08126,0.2398 0,0.0943 0.188814,0.54197 0.487804,1.15651 0.156566,0.3218 0.284666,0.59634 0.284666,0.6101 0,0.0495 0.405557,0.62765 0.685345,0.97692 0.262821,0.32809 1.12764,1.18137 1.278066,1.26101 0.03538,0.0187 0.116469,0.0815 0.180194,0.13959 0.06373,0.058 0.263608,0.20226 0.444171,0.32049 0.180563,0.11824 0.363063,0.24874 0.405547,0.29001 0.08662,0.0841 0.670167,0.38442 1.08146,0.55649 0.571381,0.23905 1.993661,0.69665 2.510529,0.80773 1.760798,0.3784 1.903279,0.39889 3.862355,0.55534 l 1.197331,0.0956 h 8.130252 8.130252 l 1.066083,-0.0949 c 0.586339,-0.0522 1.107758,-0.1105 1.158702,-0.12957 0.05094,-0.0191 0.196912,-0.0473 0.324373,-0.0626 1.406702,-0.1697 3.174403,-0.70333 4.383768,-1.32336 0.350508,-0.17971 0.68074,-0.36555 0.733847,-0.41299 0.05311,-0.0474 0.235602,-0.18476 0.405546,-0.30517 0.300898,-0.21317 1.487007,-1.37239 1.487007,-1.45329 0,-0.0223 0.05742,-0.11574 0.127615,-0.20769 0.07019,-0.092 0.15153,-0.22682 0.180767,-0.29969 0.02923,-0.0729 0.09974,-0.20201 0.156683,-0.28699 0.224105,-0.33443 0.653358,-1.34924 0.67803,-1.60298 0.0072,-0.0743 0.03937,-0.23948 0.07141,-0.36694 0.218808,-0.87044 0.245541,-1.20868 0.251844,-3.18664 0.0031,-0.98785 0.0187,-1.80921 0.03458,-1.82522 0.01589,-0.016 2.19181,-0.0247 4.835408,-0.0193 l 4.806549,0.01 v 1.73816 c 0,1.94306 -0.0324,2.96233 -0.114179,3.59221 -0.03034,0.23369 -0.06681,0.63297 -0.08105,0.88731 -0.01423,0.25433 -0.05041,0.55658 -0.08038,0.67165 -0.02997,0.11508 -0.0442,0.24168 -0.0316,0.28135 0.01259,0.0397 -0.0026,0.16328 -0.03365,0.27469 -0.0311,0.1114 -0.0677,0.28946 -0.08133,0.39568 -0.02744,0.21388 -0.186156,0.78066 -0.367347,1.31185 -0.06495,0.19042 -0.108862,0.37526 -0.09759,0.41078 0.01127,0.0355 -0.0166,0.15783 -0.06191,0.27181 -0.04532,0.11398 -0.106025,0.2968 -0.134905,0.40628 -0.02888,0.10946 -0.12425,0.37019 -0.211947,0.57939 -0.08769,0.20919 -0.191335,0.46345 -0.230322,0.56503 -0.03898,0.10158 -0.185148,0.39368 -0.324817,0.64912 -0.13967,0.25544 -0.253941,0.47862 -0.253941,0.49597 0,0.0173 -0.08691,0.16466 -0.193119,0.32738 -0.106214,0.16271 -0.193118,0.30495 -0.193118,0.31608 0,0.0111 -0.07386,0.12563 -0.164147,0.25445 -0.09028,0.12881 -0.184796,0.27025 -0.210041,0.31431 -0.145186,0.25346 -0.706552,0.88149 -1.439365,1.61029 -0.863746,0.85902 -0.894711,0.88365 -2.029488,1.61474 -0.23367,0.15055 -0.465862,0.31073 -0.515979,0.35597 -0.09365,0.0845 -1.067748,0.57989 -1.68556,0.85716 -0.747455,0.33546 -2.202883,0.801 -3.55337,1.13661 -1.11967,0.27824 -1.503883,0.35493 -2.607086,0.52031 -0.733872,0.11002 -1.862263,0.24633 -2.607085,0.31494 l -1.313203,0.12096 -11.297385,0.007 -11.297384,0.007 -1.158703,-0.10735 z m 70.719694,4.1e-4 c -2.181166,-0.1625 -2.822116,-0.24567 -4.634825,-0.60139 -1.239585,-0.24326 -1.971821,-0.43646 -3.089885,-0.81527 -2.395435,-0.8116 -4.0289,-1.71537 -5.810496,-3.21484 -0.709982,-0.59756 -2.024892,-2.02167 -2.231768,-2.41712 -0.03334,-0.0637 -0.13377,-0.21147 -0.223169,-0.32832 -0.08941,-0.11684 -0.192291,-0.26458 -0.228624,-0.32832 -0.03633,-0.0637 -0.150492,-0.25493 -0.25369,-0.42488 -0.303239,-0.49944 -0.684977,-1.18972 -0.715575,-1.29397 -0.01559,-0.0531 -0.1304,-0.29828 -0.255141,-0.54483 -0.124737,-0.24655 -0.238425,-0.50727 -0.252642,-0.57939 -0.01421,-0.0721 -0.07511,-0.24137 -0.135334,-0.37613 -0.06022,-0.13476 -0.109486,-0.26626 -0.109486,-0.29223 0,-0.026 -0.09521,-0.28073 -0.211585,-0.56613 -0.118238,-0.28999 -0.211958,-0.58015 -0.212428,-0.65771 -5.11e-4,-0.0764 -0.03314,-0.23278 -0.07261,-0.34764 -0.03947,-0.11486 -0.10124,-0.34789 -0.137282,-0.51784 -0.03604,-0.16996 -0.125012,-0.56973 -0.19771,-0.8884 -0.0727,-0.31866 -0.174821,-0.84011 -0.226942,-1.15877 -0.09982,-0.61036 -0.29739,-2.21061 -0.314245,-2.54537 -0.0054,-0.10839 -0.0247,-0.50125 -0.04275,-0.87302 -0.0532,-1.09518 -0.03813,-13.79985 0.01698,-14.33021 0.02539,-0.24431 0.06437,-0.69623 0.08661,-1.00427 0.02224,-0.30805 0.08321,-0.78764 0.135467,-1.06577 0.05225,-0.27813 0.09485,-0.54754 0.09465,-0.5987 -8.69e-4,-0.24807 0.354649,-2.02071 0.437085,-2.17881 0.02215,-0.0425 0.05271,-0.13808 0.06792,-0.21244 0.04975,-0.24341 0.225981,-0.87864 0.28033,-1.01047 0.02924,-0.071 0.101654,-0.27674 0.160906,-0.45732 0.05926,-0.18057 0.167286,-0.44749 0.240086,-0.59315 0.07279,-0.14566 0.122952,-0.28931 0.111469,-0.31924 -0.0373,-0.0972 0.834959,-1.80649 1.160027,-2.27318 0.02919,-0.0419 0.05307,-0.1083 0.05307,-0.14755 0,-0.0798 0.179101,-0.35498 0.304491,-0.46785 0.04496,-0.0405 0.08176,-0.0926 0.08177,-0.11589 10e-6,-0.0233 0.08257,-0.14464 0.183462,-0.26975 0.100892,-0.12509 0.200818,-0.25539 0.22206,-0.28954 0.21437,-0.34459 1.211078,-1.46742 1.667211,-1.87818 1.125181,-1.01323 2.472366,-1.93665 3.643527,-2.49741 0.223051,-0.1068 0.579351,-0.27805 0.791779,-0.38057 0.721372,-0.34812 1.274267,-0.54747 2.819519,-1.01656 1.475085,-0.44779 3.335922,-0.80388 5.484543,-1.04954 0.2974,-0.034 1.279405,-0.11436 2.182229,-0.17858 l 1.641502,-0.11675 7.0487922,-0.0218 c 7.81377247,-0.0242 10.1224302,0.006 12.649206,0.16499 2.810833,0.17696 4.7739678,0.43608 6.6046268,0.87179 0.733304,0.17453 2.334914,0.61044 2.394657,0.65177 0.02124,0.0147 0.151602,0.0575 0.289681,0.0952 1.063189,0.28998 3.304532,1.3446 4.415092,2.07744 0.316607,0.20892 0.440234,0.29858 1.243255,0.90169 0.548335,0.41183 1.873239,1.60019 1.873239,1.68018 0,0.0205 0.09994,0.14668 0.222076,0.28047 0.420249,0.46029 0.519357,0.58937 1.216645,1.58464 0.18588,0.26531 0.337972,0.4986 0.337972,0.51842 0,0.0198 0.138867,0.25777 0.308586,0.52876 0.169746,0.271 0.397316,0.68618 0.505719,0.92263 0.108402,0.23644 0.247611,0.53886 0.309368,0.67204 0.06175,0.13318 0.112282,0.27726 0.112282,0.3202 0,0.0429 0.03271,0.14255 0.07268,0.22137 0.234555,0.46232 0.71488,1.93913 0.907165,2.78918 0.337011,1.48975 0.448992,2.05062 0.469722,2.35285 0.0094,0.13625 0.06036,0.58817 0.113316,1.00427 0.05298,0.4161 0.09263,0.78261 0.08811,0.81448 -0.0046,0.0319 0.01768,0.29259 0.04908,0.57938 0.04718,0.42941 0.05728,1.28163 0.05728,4.82824 v 4.30679 H 4.597985 -17.262938 v -4.19091 -4.19091 l 16.74330346,-0.0193 16.74330354,-0.0193 -5.11e-4,-1.37122 c -5.11e-4,-0.75417 -0.01157,-1.51027 -0.02515,-1.68022 -0.0334,-0.41778 -0.101556,-0.94072 -0.128238,-0.9839 -0.01199,-0.0194 -0.04033,-0.13562 -0.06301,-0.25833 -0.02268,-0.12271 -0.07442,-0.28815 -0.114972,-0.36764 -0.04056,-0.0795 -0.07373,-0.17972 -0.07373,-0.22272 0,-0.0887 -0.388518,-0.84762 -0.526945,-1.02938 -0.05007,-0.0657 -0.09174,-0.15265 -0.09262,-0.19313 -0.0031,-0.14536 -0.51511,-0.76151 -1.098648,-1.32213 -0.844753,-0.8116 -2.444528,-1.75087 -3.631149,-2.13195 -0.148703,-0.0477 -0.287743,-0.1 -0.30899,-0.11604 -0.02124,-0.0161 -0.2037373,-0.0814 -0.4055471,-0.14525 -1.2679686,-0.40096 -3.11195,-0.77011 -4.576887,-0.91628 -2.2212366,-0.22161 -2.0146417,-0.21598 -8.7096084,-0.23769 -9.3343475,-0.0303 -12.5447655,0.0485 -14.5996985,0.35842 -0.785143,0.11841 -1.808338,0.31775 -1.910779,0.37227 -0.04189,0.0223 -0.276532,0.0969 -0.521418,0.16568 -0.406319,0.11421 -0.61273,0.18928 -1.237412,0.45007 -0.117042,0.0489 -0.400041,0.20182 -0.628895,0.33991 -0.228849,0.13809 -0.473618,0.28584 -0.543923,0.32832 -0.313611,0.18953 -1.182843,1.00141 -1.182843,1.1048 0,0.0351 -0.0279,0.087 -0.062,0.11529 -0.03409,0.0283 -0.132129,0.15645 -0.217842,0.28477 -0.08571,0.12832 -0.196059,0.27687 -0.245203,0.33012 -0.09354,0.10134 -0.517687,0.96071 -0.517937,1.04939 0,0.0282 -0.03542,0.10906 -0.07853,0.17978 -0.04311,0.0707 -0.102814,0.21846 -0.132665,0.32832 -0.02985,0.10986 -0.0901,0.29118 -0.133892,0.40294 -0.0438,0.11176 -0.07963,0.23636 -0.07963,0.27689 0,0.0405 -0.06088,0.26786 -0.135278,0.50518 -0.0744,0.23732 -0.144557,0.50381 -0.155896,0.59219 -0.01133,0.0884 -0.06286,0.41274 -0.114506,0.72078 -0.165696,0.98837 -0.249094,1.5545 -0.290182,1.96992 -0.02206,0.22307 -0.07005,0.6663 -0.106643,0.98496 -0.05975,0.52039 -0.06653,1.10844 -0.06653,5.77458 0,6.0931 0.02103,6.82774 0.232202,8.11143 0.0332,0.20182 0.07673,0.47123 0.09672,0.5987 0.02001,0.12747 0.05411,0.29248 0.07581,0.36669 0.0217,0.0742 0.03972,0.1872 0.04005,0.25107 5.11e-4,0.0639 0.07044,0.31602 0.155793,0.56033 0.08535,0.24431 0.17087,0.51372 0.190047,0.5987 0.130922,0.58018 0.846353,1.97681 1.13562,2.21689 0.03458,0.0287 0.06287,0.0774 0.06287,0.10833 0,0.18242 1.251119,1.48024 1.602879,1.66271 0.06373,0.0331 0.291679,0.17797 0.506551,0.32204 0.496598,0.33295 1.288515,0.73504 1.946044,0.98809 0.488408,0.18797 2.306736,0.67677 2.935391,0.7891 0.813251,0.14529 2.185296,0.33261 2.684338,0.36646 0.212428,0.0144 0.405025,0.041 0.427985,0.0591 0.02296,0.0181 0.793113,0.0767 1.711444,0.13021 l 1.669696,0.0973 h 9.184934 c 8.9456811,0 9.2054342,-0.002 9.9721681,-0.0784 2.0259089,-0.20177 2.8812609,-0.40059 4.1695969,-0.96922 0.56657,-0.25007 0.543181,-0.23691 1.116086,-0.62783 0.508223,-0.34678 1.468894,-1.34288 1.468894,-1.52306 0,-0.0201 0.02754,-0.0594 0.06119,-0.0874 0.03365,-0.0279 0.12083,-0.16478 0.193722,-0.30408 0.07289,-0.13931 0.192883,-0.35759 0.266649,-0.48505 0.07376,-0.12747 0.134322,-0.26516 0.134572,-0.30598 5.12e-4,-0.0767 0.123065,-0.41078 0.298796,-0.81417 0.05553,-0.12747 0.10442,-0.30997 0.108653,-0.40557 0.0076,-0.17292 0.04812,-0.4093 0.152092,-0.8884 0.09165,-0.42232 0.167936,-1.06385 0.197511,-1.66091 0.01,-0.20182 0.02583,-0.38874 0.03518,-0.41537 0.01355,-0.0386 1.046987,-0.0464 5.068193,-0.0386 l 5.051185,0.01 v 1.44847 c 0,2.38349 -0.01172,2.51933 -0.334439,4.13297 -0.02337,0.11684 -0.04511,0.28197 -0.04835,0.36695 -0.0032,0.085 -0.04307,0.26748 -0.08854,0.40557 -0.04548,0.13808 -0.110518,0.35536 -0.144515,0.48282 -0.034,0.12747 -0.08772,0.32736 -0.119353,0.4442 -0.03166,0.11684 -0.150896,0.41233 -0.264968,0.65664 -0.114071,0.24431 -0.282094,0.60932 -0.37337,0.81114 -0.0913,0.20182 -0.232279,0.46594 -0.31332,0.58692 -0.08104,0.121 -0.147337,0.23058 -0.147337,0.24354 0,0.013 -0.07385,0.12957 -0.164137,0.25914 -0.09029,0.12958 -0.207602,0.31073 -0.260699,0.40255 -0.110263,0.19065 -0.427091,0.58649 -0.7242,0.90483 -0.111525,0.11949 -0.202776,0.23609 -0.202776,0.25911 0,0.0408 -0.734091,0.74252 -1.004202,0.95993 -0.07436,0.0598 -0.223716,0.18818 -0.331914,0.2852 -0.237555,0.21298 -1.243097,0.92081 -1.477804,1.04026 -0.09252,0.0471 -0.288142,0.16247 -0.434703,0.25643 -0.3495,0.22404 -1.433792,0.7663 -1.849682,0.92504 -1.19728,0.457 -1.46737,0.55653 -1.622187,0.5978 -0.0956,0.0255 -0.191186,0.0602 -0.212428,0.0772 -0.06751,0.0539 -1.708632,0.49357 -2.510534,0.67257 -2.000276,0.44653 -4.4206897,0.77145 -7.2225966,0.96958 l -1.8925538,0.13382 -10.3124866,-0.004 -10.312482,-0.004 -1.429068,-0.10647 z m -108.958367,-0.66568 c -0.0101,-0.0266 -0.0139,-11.24221 -0.008,-24.9235 l 0.01,-24.87507 h 5.11761 5.11762 v 24.91369 24.91371 l -5.10912,0.01 c -4.06698,0.008 -5.11286,0 -5.12749,-0.0386 z m 0.008,-58.88195 c -0.0142,-0.0142 -0.0259,-2.4825 -0.0259,-5.48503 v -5.45912 h 5.13706 5.13707 l -0.01,5.47522 -0.01,5.47522 -5.10138,0.01 c -2.80576,0.005 -5.11303,-0.002 -5.12727,-0.0161 z"
       style="fill:#010101" />
  </g>
</svg>
